<svg id="Ebene_1" data-name="Ebene 1" xmlns="http://www.w3.org/2000/svg" viewBox="0 0 19.61 10.49"><defs><style>.cls-1,.cls-2,.cls-3{fill:#fff;stroke:#000;stroke-miterlimit:10;}.cls-2{stroke-width:0.1px;}.cls-3{stroke-width:0.05px;}</style></defs><path class="cls-1" d="M-368.5-112.5" transform="translate(-1.45 -0.56)"/><path class="cls-2" d="M21,6.59v.14a.14.14,0,0,0-.14-.14H11.55a.16.16,0,0,1-.09,0L5,.65a.13.13,0,0,0-.18,0l-3.25,3a.15.15,0,0,0,0,.21L4.36,6.37a.14.14,0,0,1-.1.24H1.64a.14.14,0,0,0-.14.14v4.11a.14.14,0,0,0,.14.14H20.87a.14.14,0,0,0,.14-.14V9.24" transform="translate(-1.45 -0.56)"/><path class="cls-2" d="M21,9.24" transform="translate(-1.45 -0.56)"/><line class="cls-2" x1="10.1" y1="6.03" x2="2.81" y2="6.05"/><rect class="cls-2" x="13.51" y="1" width="3" height="5" rx="0.73" transform="translate(28.57 6.44) rotate(-180)"/><circle class="cls-3" cx="13.56" cy="1.94" r="0.5"/><circle class="cls-3" cx="13.56" cy="3.94" r="0.5"/></svg>