<svg id="Ebene_1" data-name="Ebene 1" xmlns="http://www.w3.org/2000/svg" viewBox="0 0 19.61 10.49">
    <defs>
        <style>.cls-1,.cls-2{fill:#fff;stroke:#000;stroke-miterlimit:10;}.cls-2{stroke-width:0.1px;}</style>
    </defs>
    <path class="cls-1" d="M-368.5-112.5" transform="translate(-1.45 -0.56)"/>
    <path class="cls-2"
          d="M1.5,6.59v.14a.14.14,0,0,1,.14-.14H11a.14.14,0,0,0,.09,0L17.48.65a.14.14,0,0,1,.19,0l3.24,3a.15.15,0,0,1,0,.21L18.16,6.37a.13.13,0,0,0,.09.24h2.62a.14.14,0,0,1,.14.14v4.11a.14.14,0,0,1-.14.14H1.64a.14.14,0,0,1-.14-.14V9.24"
          transform="translate(-1.45 -0.56)"/>
    <path class="cls-2" d="M1.5,9.24" transform="translate(-1.45 -0.56)"/>
    <line class="cls-2" x1="16.71" y1="5.81" x2="11.55" y2="10.44"/>
</svg>
